<mxfile host="app.diagrams.net" modified="2024-03-16T10:57:16.302Z" agent="Mozilla/5.0 (Windows NT 10.0; Win64; x64) AppleWebKit/537.36 (KHTML, like Gecko) Chrome/122.0.0.0 Safari/537.36 Edg/122.0.0.0" etag="MUaMLiBmUWgtboMQylgj" version="24.0.7" type="device">
  <diagram name="Страница — 1" id="Pn02A32nqaSbkwbhJP6s">
    <mxGraphModel dx="2258" dy="2005" grid="1" gridSize="10" guides="1" tooltips="1" connect="1" arrows="1" fold="1" page="1" pageScale="1" pageWidth="827" pageHeight="1169" math="0" shadow="0">
      <root>
        <mxCell id="0" />
        <mxCell id="1" parent="0" />
        <mxCell id="bccIr97JiLmQbe-36S-c-79" value="Pomodoro round" style="swimlane;fontStyle=0;childLayout=stackLayout;horizontal=1;startSize=26;fillColor=none;horizontalStack=0;resizeParent=1;resizeParentMax=0;resizeLast=0;collapsible=1;marginBottom=0;whiteSpace=wrap;html=1;" vertex="1" parent="1">
          <mxGeometry x="-100" y="-291" width="240" height="182" as="geometry" />
        </mxCell>
        <mxCell id="bccIr97JiLmQbe-36S-c-80" value="+ ID: INT (PK)" style="text;strokeColor=none;fillColor=none;align=left;verticalAlign=top;spacingLeft=4;spacingRight=4;overflow=hidden;rotatable=0;points=[[0,0.5],[1,0.5]];portConstraint=eastwest;whiteSpace=wrap;html=1;" vertex="1" parent="bccIr97JiLmQbe-36S-c-79">
          <mxGeometry y="26" width="240" height="26" as="geometry" />
        </mxCell>
        <mxCell id="bccIr97JiLmQbe-36S-c-81" value="+ Created at TIMESTAMP" style="text;strokeColor=none;fillColor=none;align=left;verticalAlign=top;spacingLeft=4;spacingRight=4;overflow=hidden;rotatable=0;points=[[0,0.5],[1,0.5]];portConstraint=eastwest;whiteSpace=wrap;html=1;" vertex="1" parent="bccIr97JiLmQbe-36S-c-79">
          <mxGeometry y="52" width="240" height="26" as="geometry" />
        </mxCell>
        <mxCell id="bccIr97JiLmQbe-36S-c-82" value="+ Updated at TIMESTAMP" style="text;strokeColor=none;fillColor=none;align=left;verticalAlign=top;spacingLeft=4;spacingRight=4;overflow=hidden;rotatable=0;points=[[0,0.5],[1,0.5]];portConstraint=eastwest;whiteSpace=wrap;html=1;" vertex="1" parent="bccIr97JiLmQbe-36S-c-79">
          <mxGeometry y="78" width="240" height="26" as="geometry" />
        </mxCell>
        <mxCell id="bccIr97JiLmQbe-36S-c-83" value="+ Total minutes INT" style="text;strokeColor=none;fillColor=none;align=left;verticalAlign=top;spacingLeft=4;spacingRight=4;overflow=hidden;rotatable=0;points=[[0,0.5],[1,0.5]];portConstraint=eastwest;whiteSpace=wrap;html=1;" vertex="1" parent="bccIr97JiLmQbe-36S-c-79">
          <mxGeometry y="104" width="240" height="26" as="geometry" />
        </mxCell>
        <mxCell id="bccIr97JiLmQbe-36S-c-84" value="+ Is completed BOOLEAN" style="text;strokeColor=none;fillColor=none;align=left;verticalAlign=top;spacingLeft=4;spacingRight=4;overflow=hidden;rotatable=0;points=[[0,0.5],[1,0.5]];portConstraint=eastwest;whiteSpace=wrap;html=1;" vertex="1" parent="bccIr97JiLmQbe-36S-c-79">
          <mxGeometry y="130" width="240" height="26" as="geometry" />
        </mxCell>
        <mxCell id="bccIr97JiLmQbe-36S-c-85" value="+ Pomodoro session id INT (FK)" style="text;strokeColor=none;fillColor=none;align=left;verticalAlign=top;spacingLeft=4;spacingRight=4;overflow=hidden;rotatable=0;points=[[0,0.5],[1,0.5]];portConstraint=eastwest;whiteSpace=wrap;html=1;" vertex="1" parent="bccIr97JiLmQbe-36S-c-79">
          <mxGeometry y="156" width="240" height="26" as="geometry" />
        </mxCell>
        <mxCell id="bccIr97JiLmQbe-36S-c-86" value="Pomodoro session" style="swimlane;fontStyle=0;childLayout=stackLayout;horizontal=1;startSize=26;fillColor=none;horizontalStack=0;resizeParent=1;resizeParentMax=0;resizeLast=0;collapsible=1;marginBottom=0;whiteSpace=wrap;html=1;" vertex="1" parent="1">
          <mxGeometry x="250" y="-278" width="170" height="156" as="geometry" />
        </mxCell>
        <mxCell id="bccIr97JiLmQbe-36S-c-87" value="+ ID INT (PK)" style="text;strokeColor=none;fillColor=none;align=left;verticalAlign=top;spacingLeft=4;spacingRight=4;overflow=hidden;rotatable=0;points=[[0,0.5],[1,0.5]];portConstraint=eastwest;whiteSpace=wrap;html=1;" vertex="1" parent="bccIr97JiLmQbe-36S-c-86">
          <mxGeometry y="26" width="170" height="26" as="geometry" />
        </mxCell>
        <mxCell id="bccIr97JiLmQbe-36S-c-88" value="+ Created at TIMESTAMP" style="text;strokeColor=none;fillColor=none;align=left;verticalAlign=top;spacingLeft=4;spacingRight=4;overflow=hidden;rotatable=0;points=[[0,0.5],[1,0.5]];portConstraint=eastwest;whiteSpace=wrap;html=1;" vertex="1" parent="bccIr97JiLmQbe-36S-c-86">
          <mxGeometry y="52" width="170" height="26" as="geometry" />
        </mxCell>
        <mxCell id="bccIr97JiLmQbe-36S-c-89" value="+ Updated at TIMESTAMP" style="text;strokeColor=none;fillColor=none;align=left;verticalAlign=top;spacingLeft=4;spacingRight=4;overflow=hidden;rotatable=0;points=[[0,0.5],[1,0.5]];portConstraint=eastwest;whiteSpace=wrap;html=1;" vertex="1" parent="bccIr97JiLmQbe-36S-c-86">
          <mxGeometry y="78" width="170" height="26" as="geometry" />
        </mxCell>
        <mxCell id="bccIr97JiLmQbe-36S-c-90" value="+ Is completed BOOLEAN" style="text;strokeColor=none;fillColor=none;align=left;verticalAlign=top;spacingLeft=4;spacingRight=4;overflow=hidden;rotatable=0;points=[[0,0.5],[1,0.5]];portConstraint=eastwest;whiteSpace=wrap;html=1;" vertex="1" parent="bccIr97JiLmQbe-36S-c-86">
          <mxGeometry y="104" width="170" height="26" as="geometry" />
        </mxCell>
        <mxCell id="bccIr97JiLmQbe-36S-c-91" value="+ User id INT (FK)" style="text;strokeColor=none;fillColor=none;align=left;verticalAlign=top;spacingLeft=4;spacingRight=4;overflow=hidden;rotatable=0;points=[[0,0.5],[1,0.5]];portConstraint=eastwest;whiteSpace=wrap;html=1;" vertex="1" parent="bccIr97JiLmQbe-36S-c-86">
          <mxGeometry y="130" width="170" height="26" as="geometry" />
        </mxCell>
        <mxCell id="bccIr97JiLmQbe-36S-c-92" value="User" style="swimlane;fontStyle=0;childLayout=stackLayout;horizontal=1;startSize=26;fillColor=none;horizontalStack=0;resizeParent=1;resizeParentMax=0;resizeLast=0;collapsible=1;marginBottom=0;whiteSpace=wrap;html=1;" vertex="1" parent="1">
          <mxGeometry x="490" y="-278" width="170" height="180" as="geometry" />
        </mxCell>
        <mxCell id="bccIr97JiLmQbe-36S-c-93" value="+ ID INT (PK)" style="text;strokeColor=none;fillColor=none;align=left;verticalAlign=top;spacingLeft=4;spacingRight=4;overflow=hidden;rotatable=0;points=[[0,0.5],[1,0.5]];portConstraint=eastwest;whiteSpace=wrap;html=1;" vertex="1" parent="bccIr97JiLmQbe-36S-c-92">
          <mxGeometry y="26" width="170" height="26" as="geometry" />
        </mxCell>
        <mxCell id="bccIr97JiLmQbe-36S-c-94" value="+ Created at TIMESTAMP" style="text;strokeColor=none;fillColor=none;align=left;verticalAlign=top;spacingLeft=4;spacingRight=4;overflow=hidden;rotatable=0;points=[[0,0.5],[1,0.5]];portConstraint=eastwest;whiteSpace=wrap;html=1;" vertex="1" parent="bccIr97JiLmQbe-36S-c-92">
          <mxGeometry y="52" width="170" height="26" as="geometry" />
        </mxCell>
        <mxCell id="bccIr97JiLmQbe-36S-c-95" value="+ Updated at TIMESTAMP" style="text;strokeColor=none;fillColor=none;align=left;verticalAlign=top;spacingLeft=4;spacingRight=4;overflow=hidden;rotatable=0;points=[[0,0.5],[1,0.5]];portConstraint=eastwest;whiteSpace=wrap;html=1;" vertex="1" parent="bccIr97JiLmQbe-36S-c-92">
          <mxGeometry y="78" width="170" height="24" as="geometry" />
        </mxCell>
        <mxCell id="bccIr97JiLmQbe-36S-c-96" value="+ Name VARCHAR(255)" style="text;strokeColor=none;fillColor=none;align=left;verticalAlign=top;spacingLeft=4;spacingRight=4;overflow=hidden;rotatable=0;points=[[0,0.5],[1,0.5]];portConstraint=eastwest;whiteSpace=wrap;html=1;" vertex="1" parent="bccIr97JiLmQbe-36S-c-92">
          <mxGeometry y="102" width="170" height="26" as="geometry" />
        </mxCell>
        <mxCell id="bccIr97JiLmQbe-36S-c-97" value="+ Password VARCHAR(255)" style="text;strokeColor=none;fillColor=none;align=left;verticalAlign=top;spacingLeft=4;spacingRight=4;overflow=hidden;rotatable=0;points=[[0,0.5],[1,0.5]];portConstraint=eastwest;whiteSpace=wrap;html=1;" vertex="1" parent="bccIr97JiLmQbe-36S-c-92">
          <mxGeometry y="128" width="170" height="26" as="geometry" />
        </mxCell>
        <mxCell id="bccIr97JiLmQbe-36S-c-98" value="+ User setting id INT (FK)" style="text;strokeColor=none;fillColor=none;align=left;verticalAlign=top;spacingLeft=4;spacingRight=4;overflow=hidden;rotatable=0;points=[[0,0.5],[1,0.5]];portConstraint=eastwest;whiteSpace=wrap;html=1;" vertex="1" parent="bccIr97JiLmQbe-36S-c-92">
          <mxGeometry y="154" width="170" height="26" as="geometry" />
        </mxCell>
        <mxCell id="bccIr97JiLmQbe-36S-c-99" value="Task" style="swimlane;fontStyle=0;childLayout=stackLayout;horizontal=1;startSize=26;fillColor=none;horizontalStack=0;resizeParent=1;resizeParentMax=0;resizeLast=0;collapsible=1;marginBottom=0;whiteSpace=wrap;html=1;" vertex="1" parent="1">
          <mxGeometry x="790" y="-499" width="160" height="208" as="geometry" />
        </mxCell>
        <mxCell id="bccIr97JiLmQbe-36S-c-100" value="+ ID INT (PK)" style="text;strokeColor=none;fillColor=none;align=left;verticalAlign=top;spacingLeft=4;spacingRight=4;overflow=hidden;rotatable=0;points=[[0,0.5],[1,0.5]];portConstraint=eastwest;whiteSpace=wrap;html=1;" vertex="1" parent="bccIr97JiLmQbe-36S-c-99">
          <mxGeometry y="26" width="160" height="26" as="geometry" />
        </mxCell>
        <mxCell id="bccIr97JiLmQbe-36S-c-101" value="+ Created at TIMESTAMP" style="text;strokeColor=none;fillColor=none;align=left;verticalAlign=top;spacingLeft=4;spacingRight=4;overflow=hidden;rotatable=0;points=[[0,0.5],[1,0.5]];portConstraint=eastwest;whiteSpace=wrap;html=1;" vertex="1" parent="bccIr97JiLmQbe-36S-c-99">
          <mxGeometry y="52" width="160" height="26" as="geometry" />
        </mxCell>
        <mxCell id="bccIr97JiLmQbe-36S-c-102" value="+ Updated at TIMESTAMP" style="text;strokeColor=none;fillColor=none;align=left;verticalAlign=top;spacingLeft=4;spacingRight=4;overflow=hidden;rotatable=0;points=[[0,0.5],[1,0.5]];portConstraint=eastwest;whiteSpace=wrap;html=1;" vertex="1" parent="bccIr97JiLmQbe-36S-c-99">
          <mxGeometry y="78" width="160" height="26" as="geometry" />
        </mxCell>
        <mxCell id="bccIr97JiLmQbe-36S-c-103" value="+ Name VARCHAR(255)" style="text;strokeColor=none;fillColor=none;align=left;verticalAlign=top;spacingLeft=4;spacingRight=4;overflow=hidden;rotatable=0;points=[[0,0.5],[1,0.5]];portConstraint=eastwest;whiteSpace=wrap;html=1;" vertex="1" parent="bccIr97JiLmQbe-36S-c-99">
          <mxGeometry y="104" width="160" height="26" as="geometry" />
        </mxCell>
        <mxCell id="bccIr97JiLmQbe-36S-c-104" value="+ Is Completed BOOLEAN" style="text;strokeColor=none;fillColor=none;align=left;verticalAlign=top;spacingLeft=4;spacingRight=4;overflow=hidden;rotatable=0;points=[[0,0.5],[1,0.5]];portConstraint=eastwest;whiteSpace=wrap;html=1;" vertex="1" parent="bccIr97JiLmQbe-36S-c-99">
          <mxGeometry y="130" width="160" height="26" as="geometry" />
        </mxCell>
        <mxCell id="bccIr97JiLmQbe-36S-c-105" value="+ User id INT (FK)" style="text;strokeColor=none;fillColor=none;align=left;verticalAlign=top;spacingLeft=4;spacingRight=4;overflow=hidden;rotatable=0;points=[[0,0.5],[1,0.5]];portConstraint=eastwest;whiteSpace=wrap;html=1;" vertex="1" parent="bccIr97JiLmQbe-36S-c-99">
          <mxGeometry y="156" width="160" height="26" as="geometry" />
        </mxCell>
        <mxCell id="bccIr97JiLmQbe-36S-c-106" value="+ Priority INT" style="text;strokeColor=none;fillColor=none;align=left;verticalAlign=top;spacingLeft=4;spacingRight=4;overflow=hidden;rotatable=0;points=[[0,0.5],[1,0.5]];portConstraint=eastwest;whiteSpace=wrap;html=1;" vertex="1" parent="bccIr97JiLmQbe-36S-c-99">
          <mxGeometry y="182" width="160" height="26" as="geometry" />
        </mxCell>
        <mxCell id="bccIr97JiLmQbe-36S-c-107" value="User settings" style="swimlane;fontStyle=0;childLayout=stackLayout;horizontal=1;startSize=26;fillColor=none;horizontalStack=0;resizeParent=1;resizeParentMax=0;resizeLast=0;collapsible=1;marginBottom=0;whiteSpace=wrap;html=1;" vertex="1" parent="1">
          <mxGeometry x="730" y="-150" width="140" height="128" as="geometry" />
        </mxCell>
        <mxCell id="bccIr97JiLmQbe-36S-c-108" value="+ ID INT (PK)" style="text;strokeColor=none;fillColor=none;align=left;verticalAlign=top;spacingLeft=4;spacingRight=4;overflow=hidden;rotatable=0;points=[[0,0.5],[1,0.5]];portConstraint=eastwest;whiteSpace=wrap;html=1;" vertex="1" parent="bccIr97JiLmQbe-36S-c-107">
          <mxGeometry y="26" width="140" height="26" as="geometry" />
        </mxCell>
        <mxCell id="bccIr97JiLmQbe-36S-c-109" value="+ Break interval INT" style="text;strokeColor=none;fillColor=none;align=left;verticalAlign=top;spacingLeft=4;spacingRight=4;overflow=hidden;rotatable=0;points=[[0,0.5],[1,0.5]];portConstraint=eastwest;whiteSpace=wrap;html=1;" vertex="1" parent="bccIr97JiLmQbe-36S-c-107">
          <mxGeometry y="52" width="140" height="26" as="geometry" />
        </mxCell>
        <mxCell id="bccIr97JiLmQbe-36S-c-110" value="+ Intervals count INT" style="text;strokeColor=none;fillColor=none;align=left;verticalAlign=top;spacingLeft=4;spacingRight=4;overflow=hidden;rotatable=0;points=[[0,0.5],[1,0.5]];portConstraint=eastwest;whiteSpace=wrap;html=1;" vertex="1" parent="bccIr97JiLmQbe-36S-c-107">
          <mxGeometry y="78" width="140" height="24" as="geometry" />
        </mxCell>
        <mxCell id="bccIr97JiLmQbe-36S-c-111" value="+ Work interval INT" style="text;strokeColor=none;fillColor=none;align=left;verticalAlign=top;spacingLeft=4;spacingRight=4;overflow=hidden;rotatable=0;points=[[0,0.5],[1,0.5]];portConstraint=eastwest;whiteSpace=wrap;html=1;" vertex="1" parent="bccIr97JiLmQbe-36S-c-107">
          <mxGeometry y="102" width="140" height="26" as="geometry" />
        </mxCell>
        <mxCell id="bccIr97JiLmQbe-36S-c-115" value="" style="edgeStyle=entityRelationEdgeStyle;fontSize=12;html=1;endArrow=ERmandOne;startArrow=ERmandOne;rounded=0;" edge="1" parent="1" source="bccIr97JiLmQbe-36S-c-98" target="bccIr97JiLmQbe-36S-c-108">
          <mxGeometry width="100" height="100" relative="1" as="geometry">
            <mxPoint x="580" y="10" as="sourcePoint" />
            <mxPoint x="680" y="-90" as="targetPoint" />
          </mxGeometry>
        </mxCell>
        <mxCell id="bccIr97JiLmQbe-36S-c-118" value="" style="edgeStyle=entityRelationEdgeStyle;fontSize=12;html=1;endArrow=ERzeroToMany;startArrow=ERmandOne;rounded=0;startSize=8;endSize=8;curved=1;" edge="1" parent="1" source="bccIr97JiLmQbe-36S-c-93" target="bccIr97JiLmQbe-36S-c-105">
          <mxGeometry width="100" height="100" relative="1" as="geometry">
            <mxPoint x="660" y="-240" as="sourcePoint" />
            <mxPoint x="780" y="-320" as="targetPoint" />
            <Array as="points">
              <mxPoint x="920" y="-260" />
              <mxPoint x="640" y="-340" />
              <mxPoint x="620" y="-370" />
              <mxPoint x="650" y="-340" />
              <mxPoint x="770" y="-250" />
            </Array>
          </mxGeometry>
        </mxCell>
        <mxCell id="bccIr97JiLmQbe-36S-c-119" value="" style="edgeStyle=entityRelationEdgeStyle;fontSize=12;html=1;endArrow=ERzeroToMany;startArrow=ERmandOne;rounded=0;startSize=8;endSize=8;curved=1;entryX=1;entryY=0.5;entryDx=0;entryDy=0;" edge="1" parent="1" source="bccIr97JiLmQbe-36S-c-93" target="bccIr97JiLmQbe-36S-c-91">
          <mxGeometry width="100" height="100" relative="1" as="geometry">
            <mxPoint x="450" y="-260" as="sourcePoint" />
            <mxPoint x="440" y="-340" as="targetPoint" />
            <Array as="points">
              <mxPoint x="570" y="-270" />
              <mxPoint x="140" y="-190" />
              <mxPoint x="90" y="-200" />
              <mxPoint x="290" y="-350" />
              <mxPoint x="270" y="-380" />
              <mxPoint x="300" y="-350" />
              <mxPoint x="420" y="-260" />
            </Array>
          </mxGeometry>
        </mxCell>
        <mxCell id="bccIr97JiLmQbe-36S-c-122" value="" style="edgeStyle=entityRelationEdgeStyle;fontSize=12;html=1;endArrow=ERzeroToMany;startArrow=ERmandOne;rounded=0;startSize=8;endSize=8;curved=1;entryX=1;entryY=0.5;entryDx=0;entryDy=0;" edge="1" parent="1" source="bccIr97JiLmQbe-36S-c-87" target="bccIr97JiLmQbe-36S-c-85">
          <mxGeometry width="100" height="100" relative="1" as="geometry">
            <mxPoint x="220" y="-270" as="sourcePoint" />
            <mxPoint x="320" y="-370" as="targetPoint" />
          </mxGeometry>
        </mxCell>
      </root>
    </mxGraphModel>
  </diagram>
</mxfile>
